<mxfile host="app.diagrams.net" agent="Mozilla/5.0 (Windows NT 10.0; Win64; x64) AppleWebKit/537.36 (KHTML, like Gecko) Chrome/136.0.0.0 Safari/537.36" version="26.2.14">
  <diagram name="Page-1" id="2a216829-ef6e-dabb-86c1-c78162f3ba2b">
    <mxGraphModel dx="946" dy="571" grid="1" gridSize="10" guides="1" tooltips="1" connect="1" arrows="1" fold="1" page="1" pageScale="1" pageWidth="850" pageHeight="1100" background="none" math="0" shadow="0">
      <root>
        <mxCell id="0" />
        <mxCell id="1" parent="0" />
        <mxCell id="lV-dZJ7PQqLPonHj44Zm-11" value="Cliente" style="swimlane;horizontal=0;whiteSpace=wrap;html=1;" vertex="1" parent="1">
          <mxGeometry x="190" y="230" width="1130" height="200" as="geometry">
            <mxRectangle x="190" y="230" width="40" height="70" as="alternateBounds" />
          </mxGeometry>
        </mxCell>
        <mxCell id="lV-dZJ7PQqLPonHj44Zm-88" style="edgeStyle=orthogonalEdgeStyle;rounded=0;orthogonalLoop=1;jettySize=auto;html=1;" edge="1" parent="lV-dZJ7PQqLPonHj44Zm-11" source="lV-dZJ7PQqLPonHj44Zm-81" target="lV-dZJ7PQqLPonHj44Zm-82">
          <mxGeometry relative="1" as="geometry" />
        </mxCell>
        <mxCell id="lV-dZJ7PQqLPonHj44Zm-81" value="Adicionar endereÃ§o" style="whiteSpace=wrap;html=1;" vertex="1" parent="lV-dZJ7PQqLPonHj44Zm-11">
          <mxGeometry x="200" y="45" width="90" height="50" as="geometry" />
        </mxCell>
        <mxCell id="lV-dZJ7PQqLPonHj44Zm-87" style="edgeStyle=orthogonalEdgeStyle;rounded=0;orthogonalLoop=1;jettySize=auto;html=1;" edge="1" parent="lV-dZJ7PQqLPonHj44Zm-11" source="lV-dZJ7PQqLPonHj44Zm-82" target="lV-dZJ7PQqLPonHj44Zm-84">
          <mxGeometry relative="1" as="geometry" />
        </mxCell>
        <mxCell id="lV-dZJ7PQqLPonHj44Zm-82" value="Escolher o Item" style="whiteSpace=wrap;html=1;" vertex="1" parent="lV-dZJ7PQqLPonHj44Zm-11">
          <mxGeometry x="350" y="45" width="80" height="50" as="geometry" />
        </mxCell>
        <mxCell id="lV-dZJ7PQqLPonHj44Zm-84" value="Escolher forma de pagamento" style="whiteSpace=wrap;html=1;" vertex="1" parent="lV-dZJ7PQqLPonHj44Zm-11">
          <mxGeometry x="515" y="45" width="90" height="50" as="geometry" />
        </mxCell>
        <mxCell id="7a84cebc1def654-1" value="Login / Registrar" style="shape=mxgraph.bpmn.shape;html=1;verticalLabelPosition=bottom;labelBackgroundColor=#ffffff;verticalAlign=top;perimeter=ellipsePerimeter;outline=standard;symbol=general;" parent="lV-dZJ7PQqLPonHj44Zm-11" vertex="1">
          <mxGeometry x="70" y="45" width="50" height="50" as="geometry" />
        </mxCell>
        <mxCell id="lV-dZJ7PQqLPonHj44Zm-89" style="edgeStyle=orthogonalEdgeStyle;rounded=0;orthogonalLoop=1;jettySize=auto;html=1;" edge="1" parent="lV-dZJ7PQqLPonHj44Zm-11" source="7a84cebc1def654-1" target="lV-dZJ7PQqLPonHj44Zm-81">
          <mxGeometry relative="1" as="geometry" />
        </mxCell>
        <mxCell id="lV-dZJ7PQqLPonHj44Zm-47" value="Aplicativo (Sistema)" style="swimlane;horizontal=0;whiteSpace=wrap;html=1;" vertex="1" parent="1">
          <mxGeometry x="190" y="430" width="1130" height="240" as="geometry" />
        </mxCell>
        <mxCell id="lV-dZJ7PQqLPonHj44Zm-50" value="Notificar falha ao cliente" style="whiteSpace=wrap;html=1;" vertex="1" parent="lV-dZJ7PQqLPonHj44Zm-47">
          <mxGeometry x="340" y="80" width="120" height="60" as="geometry" />
        </mxCell>
        <mxCell id="lV-dZJ7PQqLPonHj44Zm-61" value="NAO" style="edgeStyle=orthogonalEdgeStyle;rounded=0;orthogonalLoop=1;jettySize=auto;html=1;entryX=1;entryY=0.5;entryDx=0;entryDy=0;" edge="1" parent="lV-dZJ7PQqLPonHj44Zm-47" source="lV-dZJ7PQqLPonHj44Zm-5" target="lV-dZJ7PQqLPonHj44Zm-50">
          <mxGeometry relative="1" as="geometry" />
        </mxCell>
        <mxCell id="lV-dZJ7PQqLPonHj44Zm-5" value="Pagamento a&lt;span style=&quot;background-color: transparent; color: light-dark(rgb(0, 0, 0), rgb(255, 255, 255));&quot;&gt;utorizado&lt;/span&gt;" style="rhombus;verticalAlign=middle;align=center;fontColor=default;labelBackgroundColor=none;html=1;whiteSpace=wrap;spacingBottom=0;" vertex="1" parent="lV-dZJ7PQqLPonHj44Zm-47">
          <mxGeometry x="540" y="90" width="40" height="40" as="geometry" />
        </mxCell>
        <mxCell id="lV-dZJ7PQqLPonHj44Zm-58" style="edgeStyle=orthogonalEdgeStyle;rounded=0;orthogonalLoop=1;jettySize=auto;html=1;" edge="1" parent="lV-dZJ7PQqLPonHj44Zm-47" source="lV-dZJ7PQqLPonHj44Zm-55" target="lV-dZJ7PQqLPonHj44Zm-5">
          <mxGeometry relative="1" as="geometry" />
        </mxCell>
        <mxCell id="lV-dZJ7PQqLPonHj44Zm-55" value="Validar pagamento" style="whiteSpace=wrap;html=1;" vertex="1" parent="lV-dZJ7PQqLPonHj44Zm-47">
          <mxGeometry x="500" y="10" width="120" height="60" as="geometry" />
        </mxCell>
        <mxCell id="lV-dZJ7PQqLPonHj44Zm-114" style="edgeStyle=orthogonalEdgeStyle;rounded=0;orthogonalLoop=1;jettySize=auto;html=1;entryX=0.75;entryY=1;entryDx=0;entryDy=0;" edge="1" parent="lV-dZJ7PQqLPonHj44Zm-47" source="lV-dZJ7PQqLPonHj44Zm-112" target="lV-dZJ7PQqLPonHj44Zm-101">
          <mxGeometry relative="1" as="geometry">
            <Array as="points">
              <mxPoint x="100" y="100" />
              <mxPoint x="100" y="100" />
            </Array>
          </mxGeometry>
        </mxCell>
        <mxCell id="lV-dZJ7PQqLPonHj44Zm-112" value="Notificar cliente&lt;br&gt;de atraso na entrega" style="whiteSpace=wrap;html=1;" vertex="1" parent="lV-dZJ7PQqLPonHj44Zm-47">
          <mxGeometry x="90" y="100" width="90" height="50" as="geometry" />
        </mxCell>
        <mxCell id="lV-dZJ7PQqLPonHj44Zm-101" value="Notificar entregadores" style="whiteSpace=wrap;html=1;" vertex="1" parent="lV-dZJ7PQqLPonHj44Zm-47">
          <mxGeometry x="30" y="30" width="100" height="40" as="geometry" />
        </mxCell>
        <mxCell id="lV-dZJ7PQqLPonHj44Zm-117" value="Confirmar entregador e notificar cliente" style="whiteSpace=wrap;html=1;" vertex="1" parent="lV-dZJ7PQqLPonHj44Zm-47">
          <mxGeometry x="140" y="170" width="90" height="60" as="geometry" />
        </mxCell>
        <mxCell id="7a84cebc1def654-14" value="Enviar o pedido para o restaurante" style="html=1;whiteSpace=wrap;rounded=1;" parent="lV-dZJ7PQqLPonHj44Zm-47" vertex="1">
          <mxGeometry x="640" y="150" width="120" height="80" as="geometry" />
        </mxCell>
        <mxCell id="lV-dZJ7PQqLPonHj44Zm-60" value="SIM" style="edgeStyle=orthogonalEdgeStyle;rounded=0;orthogonalLoop=1;jettySize=auto;html=1;entryX=0.5;entryY=0;entryDx=0;entryDy=0;" edge="1" parent="lV-dZJ7PQqLPonHj44Zm-47" source="lV-dZJ7PQqLPonHj44Zm-5" target="7a84cebc1def654-14">
          <mxGeometry relative="1" as="geometry">
            <mxPoint x="700" y="110" as="targetPoint" />
          </mxGeometry>
        </mxCell>
        <mxCell id="lV-dZJ7PQqLPonHj44Zm-135" value="Notificar cliente" style="whiteSpace=wrap;html=1;" vertex="1" parent="lV-dZJ7PQqLPonHj44Zm-47">
          <mxGeometry x="790" y="160" width="120" height="60" as="geometry" />
        </mxCell>
        <mxCell id="lV-dZJ7PQqLPonHj44Zm-94" value="Processo finalizado" style="ellipse;whiteSpace=wrap;html=1;" vertex="1" parent="lV-dZJ7PQqLPonHj44Zm-47">
          <mxGeometry x="1060" y="-152.5" width="60" height="50" as="geometry" />
        </mxCell>
        <mxCell id="lV-dZJ7PQqLPonHj44Zm-96" value="Receber pedido" style="whiteSpace=wrap;html=1;" vertex="1" parent="lV-dZJ7PQqLPonHj44Zm-47">
          <mxGeometry x="1020" y="-60" width="80" height="40" as="geometry" />
        </mxCell>
        <mxCell id="lV-dZJ7PQqLPonHj44Zm-132" value="SIM" style="edgeStyle=orthogonalEdgeStyle;rounded=0;orthogonalLoop=1;jettySize=auto;html=1;" edge="1" parent="lV-dZJ7PQqLPonHj44Zm-47" source="lV-dZJ7PQqLPonHj44Zm-130" target="lV-dZJ7PQqLPonHj44Zm-94">
          <mxGeometry relative="1" as="geometry" />
        </mxCell>
        <mxCell id="lV-dZJ7PQqLPonHj44Zm-133" value="NAO" style="edgeStyle=orthogonalEdgeStyle;rounded=0;orthogonalLoop=1;jettySize=auto;html=1;entryX=0.5;entryY=0;entryDx=0;entryDy=0;" edge="1" parent="lV-dZJ7PQqLPonHj44Zm-47" source="lV-dZJ7PQqLPonHj44Zm-130" target="lV-dZJ7PQqLPonHj44Zm-94">
          <mxGeometry relative="1" as="geometry">
            <mxPoint x="1090.0000000000002" y="-160" as="targetPoint" />
            <Array as="points">
              <mxPoint x="960" y="-160" />
              <mxPoint x="1090" y="-160" />
            </Array>
          </mxGeometry>
        </mxCell>
        <mxCell id="lV-dZJ7PQqLPonHj44Zm-130" value="Feedback ao restaurante" style="rhombus;whiteSpace=wrap;html=1;" vertex="1" parent="lV-dZJ7PQqLPonHj44Zm-47">
          <mxGeometry x="930" y="-130" width="60" height="60" as="geometry" />
        </mxCell>
        <mxCell id="lV-dZJ7PQqLPonHj44Zm-128" value="Confirmar recebimento" style="whiteSpace=wrap;html=1;" vertex="1" parent="lV-dZJ7PQqLPonHj44Zm-47">
          <mxGeometry x="960" y="30" width="90" height="50" as="geometry" />
        </mxCell>
        <mxCell id="lV-dZJ7PQqLPonHj44Zm-129" style="edgeStyle=orthogonalEdgeStyle;rounded=0;orthogonalLoop=1;jettySize=auto;html=1;exitX=0.25;exitY=1;exitDx=0;exitDy=0;entryX=0.5;entryY=0;entryDx=0;entryDy=0;" edge="1" parent="lV-dZJ7PQqLPonHj44Zm-47" source="lV-dZJ7PQqLPonHj44Zm-96" target="lV-dZJ7PQqLPonHj44Zm-128">
          <mxGeometry relative="1" as="geometry" />
        </mxCell>
        <mxCell id="lV-dZJ7PQqLPonHj44Zm-131" style="edgeStyle=orthogonalEdgeStyle;rounded=0;orthogonalLoop=1;jettySize=auto;html=1;exitX=0.25;exitY=0;exitDx=0;exitDy=0;entryX=0.5;entryY=1;entryDx=0;entryDy=0;" edge="1" parent="lV-dZJ7PQqLPonHj44Zm-47" source="lV-dZJ7PQqLPonHj44Zm-128" target="lV-dZJ7PQqLPonHj44Zm-130">
          <mxGeometry relative="1" as="geometry" />
        </mxCell>
        <mxCell id="lV-dZJ7PQqLPonHj44Zm-145" value="Acompanhamento do pedido" style="whiteSpace=wrap;html=1;" vertex="1" parent="lV-dZJ7PQqLPonHj44Zm-47">
          <mxGeometry x="920" y="170" width="110" height="40" as="geometry" />
        </mxCell>
        <mxCell id="lV-dZJ7PQqLPonHj44Zm-53" value="Restaurante" style="swimlane;horizontal=0;whiteSpace=wrap;html=1;" vertex="1" parent="1">
          <mxGeometry x="190" y="670" width="1130" height="360" as="geometry" />
        </mxCell>
        <mxCell id="lV-dZJ7PQqLPonHj44Zm-72" value="" style="edgeStyle=orthogonalEdgeStyle;rounded=0;orthogonalLoop=1;jettySize=auto;html=1;" edge="1" parent="lV-dZJ7PQqLPonHj44Zm-53" source="lV-dZJ7PQqLPonHj44Zm-68" target="lV-dZJ7PQqLPonHj44Zm-71">
          <mxGeometry relative="1" as="geometry" />
        </mxCell>
        <mxCell id="lV-dZJ7PQqLPonHj44Zm-73" value="NAO" style="edgeLabel;html=1;align=center;verticalAlign=middle;resizable=0;points=[];" vertex="1" connectable="0" parent="lV-dZJ7PQqLPonHj44Zm-72">
          <mxGeometry x="0.02" y="1" relative="1" as="geometry">
            <mxPoint as="offset" />
          </mxGeometry>
        </mxCell>
        <mxCell id="lV-dZJ7PQqLPonHj44Zm-75" value="" style="edgeStyle=orthogonalEdgeStyle;rounded=0;orthogonalLoop=1;jettySize=auto;html=1;" edge="1" parent="lV-dZJ7PQqLPonHj44Zm-53" source="lV-dZJ7PQqLPonHj44Zm-68" target="lV-dZJ7PQqLPonHj44Zm-74">
          <mxGeometry relative="1" as="geometry">
            <Array as="points">
              <mxPoint x="780" y="180" />
            </Array>
          </mxGeometry>
        </mxCell>
        <mxCell id="lV-dZJ7PQqLPonHj44Zm-76" value="SIM" style="edgeLabel;html=1;align=center;verticalAlign=middle;resizable=0;points=[];" vertex="1" connectable="0" parent="lV-dZJ7PQqLPonHj44Zm-75">
          <mxGeometry x="-0.4333" y="-1" relative="1" as="geometry">
            <mxPoint x="6" y="-1" as="offset" />
          </mxGeometry>
        </mxCell>
        <mxCell id="lV-dZJ7PQqLPonHj44Zm-68" value="Aceitar pedido" style="rhombus;whiteSpace=wrap;html=1;" vertex="1" parent="lV-dZJ7PQqLPonHj44Zm-53">
          <mxGeometry x="670" y="150" width="60" height="60" as="geometry" />
        </mxCell>
        <mxCell id="lV-dZJ7PQqLPonHj44Zm-78" style="edgeStyle=orthogonalEdgeStyle;rounded=0;orthogonalLoop=1;jettySize=auto;html=1;" edge="1" parent="lV-dZJ7PQqLPonHj44Zm-53" source="lV-dZJ7PQqLPonHj44Zm-71" target="lV-dZJ7PQqLPonHj44Zm-77">
          <mxGeometry relative="1" as="geometry" />
        </mxCell>
        <mxCell id="lV-dZJ7PQqLPonHj44Zm-71" value="Rejeitar pedido" style="whiteSpace=wrap;html=1;" vertex="1" parent="lV-dZJ7PQqLPonHj44Zm-53">
          <mxGeometry x="480" y="150" width="120" height="60" as="geometry" />
        </mxCell>
        <mxCell id="lV-dZJ7PQqLPonHj44Zm-74" value="Confirmar pedido" style="whiteSpace=wrap;html=1;" vertex="1" parent="lV-dZJ7PQqLPonHj44Zm-53">
          <mxGeometry x="720" y="60" width="120" height="60" as="geometry" />
        </mxCell>
        <mxCell id="lV-dZJ7PQqLPonHj44Zm-77" value="Notificar Cliente" style="ellipse;whiteSpace=wrap;html=1;" vertex="1" parent="lV-dZJ7PQqLPonHj44Zm-53">
          <mxGeometry x="390" y="155" width="50" height="50" as="geometry" />
        </mxCell>
        <mxCell id="lV-dZJ7PQqLPonHj44Zm-79" value="Preparar pedido" style="whiteSpace=wrap;html=1;" vertex="1" parent="lV-dZJ7PQqLPonHj44Zm-53">
          <mxGeometry x="600" y="250" width="120" height="60" as="geometry" />
        </mxCell>
        <mxCell id="lV-dZJ7PQqLPonHj44Zm-100" value="Notificar sistema de pedido pronto" style="whiteSpace=wrap;html=1;" vertex="1" parent="lV-dZJ7PQqLPonHj44Zm-53">
          <mxGeometry x="240" y="80" width="100" height="50" as="geometry" />
        </mxCell>
        <mxCell id="lV-dZJ7PQqLPonHj44Zm-99" style="edgeStyle=orthogonalEdgeStyle;rounded=0;orthogonalLoop=1;jettySize=auto;html=1;exitX=0;exitY=0.5;exitDx=0;exitDy=0;" edge="1" parent="lV-dZJ7PQqLPonHj44Zm-53" source="lV-dZJ7PQqLPonHj44Zm-79">
          <mxGeometry relative="1" as="geometry">
            <mxPoint x="290" y="130" as="targetPoint" />
            <mxPoint x="670" y="229.94736842105272" as="sourcePoint" />
            <Array as="points">
              <mxPoint x="600" y="290" />
              <mxPoint x="290" y="290" />
              <mxPoint x="290" y="130" />
            </Array>
          </mxGeometry>
        </mxCell>
        <mxCell id="lV-dZJ7PQqLPonHj44Zm-86" style="edgeStyle=orthogonalEdgeStyle;rounded=0;orthogonalLoop=1;jettySize=auto;html=1;entryX=0.5;entryY=0;entryDx=0;entryDy=0;" edge="1" parent="1" source="lV-dZJ7PQqLPonHj44Zm-84" target="lV-dZJ7PQqLPonHj44Zm-55">
          <mxGeometry relative="1" as="geometry" />
        </mxCell>
        <mxCell id="lV-dZJ7PQqLPonHj44Zm-90" style="edgeStyle=orthogonalEdgeStyle;rounded=0;orthogonalLoop=1;jettySize=auto;html=1;" edge="1" parent="1" source="lV-dZJ7PQqLPonHj44Zm-50">
          <mxGeometry relative="1" as="geometry">
            <mxPoint x="710" y="325" as="targetPoint" />
            <Array as="points">
              <mxPoint x="590" y="360" />
              <mxPoint x="710" y="360" />
              <mxPoint x="710" y="325" />
            </Array>
          </mxGeometry>
        </mxCell>
        <mxCell id="lV-dZJ7PQqLPonHj44Zm-98" value="&#xa;Realizar entrega ao cliente&#xa;&#xa;" style="swimlane;horizontal=0;whiteSpace=wrap;html=1;startSize=23;" vertex="1" parent="1">
          <mxGeometry x="190" y="1030" width="1390" height="240" as="geometry" />
        </mxCell>
        <mxCell id="lV-dZJ7PQqLPonHj44Zm-124" style="edgeStyle=orthogonalEdgeStyle;rounded=0;orthogonalLoop=1;jettySize=auto;html=1;" edge="1" parent="lV-dZJ7PQqLPonHj44Zm-98" source="lV-dZJ7PQqLPonHj44Zm-106" target="lV-dZJ7PQqLPonHj44Zm-123">
          <mxGeometry relative="1" as="geometry" />
        </mxCell>
        <mxCell id="lV-dZJ7PQqLPonHj44Zm-106" value="Buscar pedido no estabelecimento" style="whiteSpace=wrap;html=1;" vertex="1" parent="lV-dZJ7PQqLPonHj44Zm-98">
          <mxGeometry x="230" y="60" width="100" height="50" as="geometry" />
        </mxCell>
        <mxCell id="lV-dZJ7PQqLPonHj44Zm-103" value="Aceitar corrida" style="rhombus;whiteSpace=wrap;html=1;" vertex="1" parent="lV-dZJ7PQqLPonHj44Zm-98">
          <mxGeometry x="50" y="60" width="60" height="50" as="geometry" />
        </mxCell>
        <mxCell id="lV-dZJ7PQqLPonHj44Zm-123" value="Pedido retirado" style="whiteSpace=wrap;html=1;" vertex="1" parent="lV-dZJ7PQqLPonHj44Zm-98">
          <mxGeometry x="610" y="60" width="90" height="50" as="geometry" />
        </mxCell>
        <mxCell id="lV-dZJ7PQqLPonHj44Zm-151" style="edgeStyle=orthogonalEdgeStyle;rounded=0;orthogonalLoop=1;jettySize=auto;html=1;exitX=0.204;exitY=-0.057;exitDx=0;exitDy=0;entryX=0.5;entryY=1;entryDx=0;entryDy=0;exitPerimeter=0;" edge="1" parent="lV-dZJ7PQqLPonHj44Zm-98" source="lV-dZJ7PQqLPonHj44Zm-125" target="lV-dZJ7PQqLPonHj44Zm-148">
          <mxGeometry relative="1" as="geometry">
            <Array as="points">
              <mxPoint x="1040" y="100" />
            </Array>
          </mxGeometry>
        </mxCell>
        <mxCell id="lV-dZJ7PQqLPonHj44Zm-125" value="Realizar entrega ao cliente" style="whiteSpace=wrap;html=1;" vertex="1" parent="lV-dZJ7PQqLPonHj44Zm-98">
          <mxGeometry x="1020" y="100" width="100" height="50" as="geometry" />
        </mxCell>
        <mxCell id="lV-dZJ7PQqLPonHj44Zm-154" value="NAO" style="edgeStyle=orthogonalEdgeStyle;rounded=0;orthogonalLoop=1;jettySize=auto;html=1;" edge="1" parent="lV-dZJ7PQqLPonHj44Zm-98" source="lV-dZJ7PQqLPonHj44Zm-148" target="lV-dZJ7PQqLPonHj44Zm-153">
          <mxGeometry relative="1" as="geometry" />
        </mxCell>
        <mxCell id="lV-dZJ7PQqLPonHj44Zm-148" value="Realizou entrega do pedido" style="rhombus;whiteSpace=wrap;html=1;" vertex="1" parent="lV-dZJ7PQqLPonHj44Zm-98">
          <mxGeometry x="1010" y="10" width="60" height="50" as="geometry" />
        </mxCell>
        <mxCell id="lV-dZJ7PQqLPonHj44Zm-157" style="edgeStyle=orthogonalEdgeStyle;rounded=0;orthogonalLoop=1;jettySize=auto;html=1;entryX=0.5;entryY=0;entryDx=0;entryDy=0;" edge="1" parent="lV-dZJ7PQqLPonHj44Zm-98" source="lV-dZJ7PQqLPonHj44Zm-153" target="lV-dZJ7PQqLPonHj44Zm-156">
          <mxGeometry relative="1" as="geometry" />
        </mxCell>
        <mxCell id="lV-dZJ7PQqLPonHj44Zm-153" value="Tentar entrar em contato com cliente" style="whiteSpace=wrap;html=1;" vertex="1" parent="lV-dZJ7PQqLPonHj44Zm-98">
          <mxGeometry x="1140" y="10" width="100" height="50" as="geometry" />
        </mxCell>
        <mxCell id="lV-dZJ7PQqLPonHj44Zm-158" value="SIM" style="edgeStyle=orthogonalEdgeStyle;rounded=0;orthogonalLoop=1;jettySize=auto;html=1;entryX=1;entryY=0.5;entryDx=0;entryDy=0;" edge="1" parent="lV-dZJ7PQqLPonHj44Zm-98" source="lV-dZJ7PQqLPonHj44Zm-156" target="lV-dZJ7PQqLPonHj44Zm-125">
          <mxGeometry relative="1" as="geometry" />
        </mxCell>
        <mxCell id="lV-dZJ7PQqLPonHj44Zm-156" value="Cliente respondeu" style="rhombus;whiteSpace=wrap;html=1;" vertex="1" parent="lV-dZJ7PQqLPonHj44Zm-98">
          <mxGeometry x="1160" y="95" width="60" height="60" as="geometry" />
        </mxCell>
        <mxCell id="lV-dZJ7PQqLPonHj44Zm-161" value="Se nÃ£o resolvido:&lt;br&gt;encherrar pedido" style="ellipse;whiteSpace=wrap;html=1;" vertex="1" parent="lV-dZJ7PQqLPonHj44Zm-98">
          <mxGeometry x="1320" y="40" width="60" height="60" as="geometry" />
        </mxCell>
        <mxCell id="lV-dZJ7PQqLPonHj44Zm-107" style="edgeStyle=orthogonalEdgeStyle;rounded=0;orthogonalLoop=1;jettySize=auto;html=1;entryX=0.5;entryY=0;entryDx=0;entryDy=0;" edge="1" parent="1" source="lV-dZJ7PQqLPonHj44Zm-101" target="lV-dZJ7PQqLPonHj44Zm-103">
          <mxGeometry relative="1" as="geometry">
            <mxPoint x="270" y="1030" as="targetPoint" />
          </mxGeometry>
        </mxCell>
        <mxCell id="lV-dZJ7PQqLPonHj44Zm-113" value="NAO" style="edgeStyle=orthogonalEdgeStyle;rounded=0;orthogonalLoop=1;jettySize=auto;html=1;entryX=0.5;entryY=1;entryDx=0;entryDy=0;exitX=0.67;exitY=0.164;exitDx=0;exitDy=0;exitPerimeter=0;" edge="1" parent="1" source="lV-dZJ7PQqLPonHj44Zm-103" target="lV-dZJ7PQqLPonHj44Zm-112">
          <mxGeometry relative="1" as="geometry">
            <mxPoint x="281.9368421052636" y="1039.9473684210527" as="sourcePoint" />
            <Array as="points">
              <mxPoint x="325" y="1098" />
            </Array>
          </mxGeometry>
        </mxCell>
        <mxCell id="lV-dZJ7PQqLPonHj44Zm-118" value="SIM" style="edgeStyle=orthogonalEdgeStyle;rounded=0;orthogonalLoop=1;jettySize=auto;html=1;entryX=0.5;entryY=1;entryDx=0;entryDy=0;" edge="1" parent="1" source="lV-dZJ7PQqLPonHj44Zm-103" target="lV-dZJ7PQqLPonHj44Zm-117">
          <mxGeometry x="0.2075" relative="1" as="geometry">
            <mxPoint x="380" y="1115" as="targetPoint" />
            <mxPoint as="offset" />
          </mxGeometry>
        </mxCell>
        <mxCell id="lV-dZJ7PQqLPonHj44Zm-122" style="edgeStyle=orthogonalEdgeStyle;rounded=0;orthogonalLoop=1;jettySize=auto;html=1;exitX=0.75;exitY=1;exitDx=0;exitDy=0;entryX=0;entryY=0.5;entryDx=0;entryDy=0;" edge="1" parent="1" source="lV-dZJ7PQqLPonHj44Zm-117" target="lV-dZJ7PQqLPonHj44Zm-106">
          <mxGeometry relative="1" as="geometry" />
        </mxCell>
        <mxCell id="lV-dZJ7PQqLPonHj44Zm-70" value="" style="edgeStyle=orthogonalEdgeStyle;rounded=0;orthogonalLoop=1;jettySize=auto;html=1;" edge="1" parent="1" source="7a84cebc1def654-14" target="lV-dZJ7PQqLPonHj44Zm-68">
          <mxGeometry relative="1" as="geometry" />
        </mxCell>
        <mxCell id="lV-dZJ7PQqLPonHj44Zm-136" value="" style="edgeStyle=orthogonalEdgeStyle;rounded=0;orthogonalLoop=1;jettySize=auto;html=1;" edge="1" parent="1" source="lV-dZJ7PQqLPonHj44Zm-74" target="lV-dZJ7PQqLPonHj44Zm-135">
          <mxGeometry relative="1" as="geometry">
            <Array as="points">
              <mxPoint x="970" y="690" />
              <mxPoint x="1010" y="690" />
            </Array>
          </mxGeometry>
        </mxCell>
        <mxCell id="lV-dZJ7PQqLPonHj44Zm-138" style="edgeStyle=orthogonalEdgeStyle;rounded=0;orthogonalLoop=1;jettySize=auto;html=1;entryX=1;entryY=0.5;entryDx=0;entryDy=0;" edge="1" parent="1" source="lV-dZJ7PQqLPonHj44Zm-135" target="lV-dZJ7PQqLPonHj44Zm-79">
          <mxGeometry relative="1" as="geometry">
            <Array as="points">
              <mxPoint x="1050" y="950" />
            </Array>
          </mxGeometry>
        </mxCell>
        <mxCell id="lV-dZJ7PQqLPonHj44Zm-139" style="edgeStyle=orthogonalEdgeStyle;rounded=0;orthogonalLoop=1;jettySize=auto;html=1;entryX=1;entryY=0.5;entryDx=0;entryDy=0;" edge="1" parent="1" source="lV-dZJ7PQqLPonHj44Zm-100" target="lV-dZJ7PQqLPonHj44Zm-101">
          <mxGeometry relative="1" as="geometry">
            <mxPoint x="480" y="470" as="targetPoint" />
            <Array as="points">
              <mxPoint x="480" y="480" />
            </Array>
          </mxGeometry>
        </mxCell>
        <mxCell id="lV-dZJ7PQqLPonHj44Zm-146" style="edgeStyle=orthogonalEdgeStyle;rounded=0;orthogonalLoop=1;jettySize=auto;html=1;entryX=0.101;entryY=1.024;entryDx=0;entryDy=0;entryPerimeter=0;" edge="1" parent="1" source="lV-dZJ7PQqLPonHj44Zm-123" target="lV-dZJ7PQqLPonHj44Zm-145">
          <mxGeometry relative="1" as="geometry" />
        </mxCell>
        <mxCell id="lV-dZJ7PQqLPonHj44Zm-147" style="edgeStyle=orthogonalEdgeStyle;rounded=0;orthogonalLoop=1;jettySize=auto;html=1;entryX=0;entryY=0.5;entryDx=0;entryDy=0;" edge="1" parent="1" source="lV-dZJ7PQqLPonHj44Zm-145" target="lV-dZJ7PQqLPonHj44Zm-125">
          <mxGeometry relative="1" as="geometry" />
        </mxCell>
        <mxCell id="lV-dZJ7PQqLPonHj44Zm-149" value="SIM" style="edgeStyle=orthogonalEdgeStyle;rounded=0;orthogonalLoop=1;jettySize=auto;html=1;entryX=0.5;entryY=1;entryDx=0;entryDy=0;" edge="1" parent="1" source="lV-dZJ7PQqLPonHj44Zm-148" target="lV-dZJ7PQqLPonHj44Zm-96">
          <mxGeometry relative="1" as="geometry" />
        </mxCell>
        <mxCell id="lV-dZJ7PQqLPonHj44Zm-162" style="edgeStyle=orthogonalEdgeStyle;rounded=0;orthogonalLoop=1;jettySize=auto;html=1;entryX=0.5;entryY=1;entryDx=0;entryDy=0;" edge="1" parent="1" source="lV-dZJ7PQqLPonHj44Zm-159" target="lV-dZJ7PQqLPonHj44Zm-161">
          <mxGeometry relative="1" as="geometry">
            <Array as="points">
              <mxPoint x="1540" y="1230" />
            </Array>
          </mxGeometry>
        </mxCell>
        <mxCell id="lV-dZJ7PQqLPonHj44Zm-159" value="Entrar em contato com restaurante" style="whiteSpace=wrap;html=1;" vertex="1" parent="1">
          <mxGeometry x="1410" y="1200" width="120" height="60" as="geometry" />
        </mxCell>
        <mxCell id="lV-dZJ7PQqLPonHj44Zm-160" value="NAO" style="edgeStyle=orthogonalEdgeStyle;rounded=0;orthogonalLoop=1;jettySize=auto;html=1;entryX=0.5;entryY=0;entryDx=0;entryDy=0;" edge="1" parent="1" source="lV-dZJ7PQqLPonHj44Zm-156" target="lV-dZJ7PQqLPonHj44Zm-159">
          <mxGeometry relative="1" as="geometry">
            <Array as="points">
              <mxPoint x="1470" y="1155" />
            </Array>
          </mxGeometry>
        </mxCell>
      </root>
    </mxGraphModel>
  </diagram>
</mxfile>
